# xmcd CD database file
#
# Track frame offsets:
#	150
#	33518
#	66526
#	95856
#	137214
#	165532
#	196416
#	227306
#	255144
#	288587
#	311879
#
# Disc length: 4646 seconds
#
# Revision: 0
# Processed by: cddbd v1.5.2PL0 Copyright (c) Steve Scherf et al.
# Submitted via: CDex 1.79
#
DISCID=9f12240b
DTITLE=Zaperoko - Lo Esencial CD2
DYEAR=2010
DGENRE=Salsa
TTITLE0=SONIDO BESTIAL
TTITLE1=ANACAONA
TTITLE2=QUE TE PASA A TI
TTITLE3=SALSA BUENA
TTITLE4=ANUNCIO CLASIFICADO
TTITLE5=TIMBALERO
TTITLE6=SE NESECITA UN RUMBERO
TTITLE7=EL AGUA
TTITLE8=UN VERANO EN EL CALLAO
TTITLE9=MENTIRAS SON
TTITLE10=LO DUDO
EXTD=YEAR: 2010
EXTT0=
EXTT1=
EXTT2=
EXTT3=
EXTT4=
EXTT5=
EXTT6=
EXTT7=
EXTT8=
EXTT9=
EXTT10=
PLAYORDER=
